<svg xmlns="http://www.w3.org/2000/svg" viewBox="0 0 64 64" fill="none" aria-labelledby="logoTitle logoDesc" role="img">
  <title id="logoTitle">Create Awesome Node App</title>
  <desc id="logoDesc">A cozy nest of three connected nodes forming the CNA mark on a dark background.</desc>
  <defs>
    <linearGradient id="cnaNest" x1="10" y1="10" x2="54" y2="54" gradientUnits="userSpaceOnUse">
      <stop offset="0%" stop-color="#fbbf24"/>
      <stop offset="55%" stop-color="#f59e0b"/>
      <stop offset="100%" stop-color="#14b8a6"/>
    </linearGradient>
    <linearGradient id="cnaDotTop" x1="0" y1="0" x2="64" y2="64" gradientUnits="userSpaceOnUse">
      <stop offset="0%" stop-color="#fbbf24"/>
      <stop offset="100%" stop-color="#f59e0b"/>
    </linearGradient>
  </defs>
  <rect width="64" height="64" rx="16" fill="#0f172a"/>
  <path
    d="M32 10c-1.6 0-3.1.8-4 2.1l-11 17.6c-1.8 2.9-.3 6.7 3 7.5V46c0 3.3 2.7 6 6 6h12c3.3 0 6-2.7 6-6V37.2c3.3-.8 4.8-4.6 3-7.5L36 12.1C35.1 10.8 33.6 10 32 10Z"
    stroke="url(#cnaNest)"
    stroke-width="5"
    stroke-linecap="round"
    stroke-linejoin="round"
    fill="none"
  />
  <circle cx="32" cy="27" r="5" fill="url(#cnaDotTop)"/>
  <circle cx="20" cy="43" r="5" fill="#14b8a6"/>
  <circle cx="44" cy="43" r="5" fill="#f59e0b"/>
</svg>
